#!OML:ASF F:\VICON\USERDATA\INSTALL\rory3\rory3.ASF
:FULLY-SPECIFIED
:DEGREES
229
root 0.886454 16.5333 36.3258 -153.135 1.0101 -182.32
lowerback -19.7945 -1.65463 -6.43358
upperback -8.11991 0.670933 -1.19825
thorax 2.28028 1.13835 2.54166
lowerneck -11.1102 1.83524 -0.802447
upperneck 39.1849 -3.1506 1.91003
head 15.7714 -2.93676 -0.0356834
rclavicle -1.5207e-014 1.07344e-014
rhumerus -52.8267 30.6471 -103.511
rradius 44.0538
rwrist -9.91653
rhand 9.02462 2.71216
rfingers 7.12502
rthumb 34.2006 -24.0268
lclavicle -1.5207e-014 1.07344e-014
lhumerus -49.6307 -18.1072 85.8346
lradius 46.7747
lwrist 3.15808
lhand 17.6264 18.7185
lfingers 7.12502
lthumb 42.3178 43.2011
rfemur -31.4276 -20.0517 31.0384
rtibia 59.991
rfoot 19.7836 -25.7996
rtoes 24.5933
lfemur -46.0588 0.226196 -33.4848
ltibia 43.5144
lfoot -37.8225 19.1691
ltoes 8.96243
230
root 0.890948 16.5373 36.3013 -153.019 1.34412 -182.315
lowerback -19.9571 -1.68957 -6.56781
upperback -8.02416 0.645043 -1.14475
thorax 2.46543 1.11219 2.6733
lowerneck -12.2225 2.26913 -0.123601
upperneck 39.6377 -2.43325 1.44281
head 16.2523 -2.56261 -0.259478
rclavicle -4.87022e-015 1.15295e-014
rhumerus -52.8187 31.381 -103.668
rradius 45.4721
rwrist -10.0611
rhand 12.255 -0.458507
rfingers 7.12502
rthumb 37.2618 -26.4548
lclavicle -4.87022e-015 1.15295e-014
lhumerus -49.7269 -18.4736 86.1913
lradius 48.1759
lwrist 3.59159
lhand 16.7906 18.2253
lfingers 7.12502
lthumb 41.5343 42.9695
rfemur -31.261 -19.858 30.9071
rtibia 59.7703
rfoot 19.4932 -25.8119
rtoes 25.0416
lfemur -46.0755 0.270127 -33.4952
ltibia 43.468
lfoot -38.0418 19.2288
ltoes 9.03393
231
root 0.89616 16.5396 36.279 -152.853 1.42858 -182.284
lowerback -20.2051 -1.79998 -6.64697
upperback -7.93472 0.522531 -1.03801
thorax 2.69681 1.03992 2.81096
lowerneck -12.6591 2.49087 0.0604865
upperneck 39.7477 -2.05213 1.31865
head 16.411 -2.37491 -0.285792
rclavicle -1.31446e-014 3.4191e-014
rhumerus -52.7981 32.0937 -103.737
rradius 46.7662
rwrist -10.1211
rhand 10.3269 1.53268
rfingers 7.12502
rthumb 35.4363 -24.9204
lclavicle -1.31446e-014 3.4191e-014
lhumerus -49.8663 -18.9606 86.642
lradius 49.7379
lwrist 4.10435
lhand 16.0259 17.9681
lfingers 7.12502
lthumb 40.8164 42.9426
rfemur -31.1682 -19.8264 30.9294
rtibia 59.539
rfoot 19.3979 -25.6666
rtoes 24.5641
lfemur -46.1473 0.165477 -33.3917
ltibia 43.4356
lfoot -38.2184 19.2128
ltoes 9.20805
232
root 0.904968 16.5425 36.257 -152.567 1.49843 -182.227
lowerback -20.5282 -1.89544 -6.70923
upperback -7.99304 0.461599 -0.974636
thorax 2.80366 1.02307 2.90467
lowerneck -12.282 2.42776 -0.131494
upperneck 39.5302 -2.14613 1.46159
head 16.2052 -2.43057 -0.197248
rclavicle -8.98258e-015 1.15295e-014
rhumerus -53.1176 32.6376 -104.027
rradius 48.0181
rwrist -9.77317
rhand 9.97715 1.55115
rfingers 7.12502
rthumb 35.1047 -24.9804
lclavicle -8.98258e-015 1.15295e-014
lhumerus -50.1967 -19.6658 87.171
lradius 51.3266
lwrist 4.54987
lhand 15.2444 17.8002
lfingers 7.12502
lthumb 40.0817 43.0015
rfemur -31.228 -19.7298 31.0371
rtibia 59.3268
rfoot 19.1983 -25.6263
rtoes 24.4661
lfemur -46.3698 0.179121 -33.3082
ltibia 43.4145
lfoot -38.1985 19.3241
ltoes 9.13834
233
root 0.912175 16.5459 36.228 -152.416 1.78821 -182.155
lowerback -20.8746 -1.87997 -6.71068
upperback -8.16039 0.565276 -1.00751
thorax 2.79107 1.10372 2.89658
lowerneck -10.7453 2.13944 -0.813444
upperneck 38.9323 -2.68941 1.98745
head 15.5431 -2.74223 0.0819148
rclavicle 4.06266e-015 -1.27222e-014
rhumerus -53.8042 32.9071 -104.53
rradius 49.4463
rwrist -9.38719
rhand 9.91426 1.33359
rfingers 7.12502
rthumb 35.045 -25.212
lclavicle 4.06266e-015 -1.27222e-014
lhumerus -50.9564 -20.4677 87.7528
lradius 53.0241
lwrist 4.91099
lhand 14.4814 17.6496
lfingers 7.12502
lthumb 39.3633 43.0645
rfemur -31.0729 -19.476 30.9483
rtibia 59.1294
rfoot 19.1507 -25.5286
rtoes 24.7615
lfemur -46.4201 0.301444 -33.2699
ltibia 43.4029
lfoot -38.3688 19.4855
ltoes 9.09765
234
root 0.916161 16.5488 36.2021 -152.361 2.01654 -182.155
lowerback -20.8076 -1.87275 -6.93236
upperback -7.93784 0.556376 -0.95192
thorax 2.99291 1.06422 3.08182
lowerneck -12.8919 2.47749 -0.0504675
upperneck 39.7565 -2.08603 1.45209
head 16.4769 -2.38101 -0.214779
rclavicle -1.63625e-014 1.15295e-014
rhumerus -53.3019 33.6876 -104.296
rradius 51.1927
rwrist -9.80168
rhand 10.4715 0.598992
rfingers 7.12502
rthumb 35.5734 -25.8212
lclavicle -1.63625e-014 1.15295e-014
lhumerus -50.6768 -21.0214 88.0174
lradius 54.7686
lwrist 5.30831
lhand 14.0205 17.6365
lfingers 7.12502
lthumb 38.9288 43.1769
rfemur -30.8564 -19.3545 30.7538
rtibia 58.9667
rfoot 19.1245 -26.0459
rtoes 26.755
lfemur -46.3482 0.200538 -33.231
ltibia 43.3986
lfoot -38.6706 19.6582
ltoes 8.84035
235
root 0.918655 16.5502 36.1816 -152.244 2.07382 -182.067
lowerback -21.0584 -1.96032 -6.82982
upperback -8.14039 0.492514 -0.899561
thorax 2.90971 1.06618 3.0665
lowerneck -11.9553 2.63436 0.0109698
upperneck 39.5911 -1.98114 1.51419
head 16.1552 -2.36708 -0.177711
rclavicle 3.78933e-015 -1.39149e-014
rhumerus -54.0618 33.9901 -104.711
rradius 52.8724
rwrist -9.64102
rhand 10.7518 0.484421
rfingers 7.12502
rthumb 35.8391 -25.8715
lclavicle 3.78933e-015 -1.39149e-014
lhumerus -51.6847 -21.6422 88.6415
lradius 56.8637
lwrist 5.73734
lhand 13.7636 17.8519
lfingers 7.12502
lthumb 38.6866 43.461
rfemur -30.762 -19.4077 30.7652
rtibia 58.8123
rfoot 15.9468 -25.3835
rtoes 27.5402
lfemur -46.3705 -0.124847 -32.9942
ltibia 43.3977
lfoot -38.9735 19.8542
ltoes 8.74556
236
root 0.919414 16.5495 36.1548 -152.174 2.30574 -181.882
lowerback -21.1889 -1.94758 -6.80719
upperback -7.89032 0.4551 -0.776217
thorax 3.24728 1.00341 3.18321
lowerneck -12.0742 2.33441 -0.513741
upperneck 39.2463 -2.25474 1.69798
head 16.0109 -2.50113 -0.0366275
rclavicle 4.89507e-015 -1.35174e-014
rhumerus -53.599 34.5231 -104.267
rradius 54.7998
rwrist -9.58276
rhand 9.10903 1.97107
rfingers 7.12502
rthumb 34.2808 -24.7499
lclavicle 4.89507e-015 -1.35174e-014
lhumerus -51.6469 -22.3769 89.2534
lradius 58.6959
lwrist 7.44734
lhand 11.6818 17.4148
lfingers 7.12502
lthumb 36.7197 43.5512
rfemur -30.574 -19.2554 30.7209
rtibia 58.6874
rfoot 16.9801 -25.397
rtoes 26.5744
lfemur -46.3367 -0.389417 -32.6923
ltibia 43.4075
lfoot -39.5444 19.9817
ltoes 9.44647
237
root 0.922997 16.5497 36.1277 -152.253 2.73603 -181.834
lowerback -21.1896 -1.86734 -6.91954
upperback -7.83824 0.56818 -0.79628
thorax 3.29075 1.04956 3.25231
lowerneck -12.1204 2.3487 -0.377692
upperneck 39.2704 -2.27145 1.66415
head 16.0346 -2.49424 -0.080174
rclavicle 1.80024e-014 -2.82274e-014
rhumerus -53.6168 34.5927 -104.038
rradius 56.9834
rwrist -9.86278
rhand 10.6504 0.829134
rfingers 7.12502
rthumb 35.743 -25.5501
lclavicle 1.80024e-014 -2.82274e-014
lhumerus -51.9457 -23.2732 89.8632
lradius 60.479
lwrist 8.54962
lhand 10.1048 16.76
lfingers 7.12502
lthumb 35.2257 43.2631
rfemur -30.2549 -18.8297 30.3483
rtibia 58.643
rfoot 22.2088 -27.0115
rtoes 27.7437
lfemur -46.1618 -0.446941 -32.6406
ltibia 43.4307
lfoot -40.0475 20.2212
ltoes 9.83516
238
root 0.927406 16.5496 36.1065 -152.442 2.94014 -181.76
lowerback -20.9451 -1.79117 -6.91584
upperback -7.89132 0.642646 -0.842565
thorax 3.10191 1.09179 3.2123
lowerneck -11.8415 2.37215 -0.323586
upperneck 39.305 -2.369 1.77448
head 15.9888 -2.53713 -0.0614542
rclavicle -4.07509e-015 7.15625e-015
rhumerus -53.8585 34.4589 -103.905
rradius 59.3691
rwrist -10.665
rhand 11.1164 0.578119
rfingers 7.12502
rthumb 36.1844 -25.6929
lclavicle -4.07509e-015 7.15625e-015
lhumerus -52.573 -24.2927 90.5081
lradius 62.4566
lwrist 9.34576
lhand 9.22302 16.6173
lfingers 7.12502
lthumb 34.389 43.3139
rfemur -29.8664 -18.5278 30.0642
rtibia 58.6462
rfoot 17.4056 -25.9374
rtoes 25.411
lfemur -45.9151 -0.45015 -32.5246
ltibia 43.4856
lfoot -40.3217 20.3661
ltoes 9.99923
239
root 0.929186 16.5487 36.0846 -152.61 3.07952 -181.423
lowerback -20.7361 -1.66471 -6.61174
upperback -7.94154 0.716299 -0.796592
thorax 2.93748 1.12667 3.10119
lowerneck -11.6379 2.43024 -0.168003
upperneck 39.3864 -2.37546 1.71864
head 15.9807 -2.54792 -0.119268
rclavicle -2.19906e-015 1.27222e-014
rhumerus -54.0901 34.4221 -103.73
rradius 61.8389
rwrist -11.6833
rhand 10.1734 1.31568
rfingers 7.12502
rthumb 35.2908 -25.172
lclavicle -2.19906e-015 1.27222e-014
lhumerus -53.4287 -25.237 91.216
lradius 64.8716
lwrist 10.222
lhand 8.99429 17.1152
lfingers 7.12502
lthumb 34.1718 43.8607
rfemur -29.5163 -18.2746 30.0391
rtibia 58.6916
rfoot 17.015 -25.1257
rtoes 23.9172
lfemur -45.687 -0.482383 -32.1006
ltibia 43.5681
lfoot -40.7924 20.3176
ltoes 10.7615
